<svg id="Layer_1" data-name="Layer 1" xmlns="http://www.w3.org/2000/svg" viewBox="0 0 15.38 12.45"><defs><style>.cls-1{fill:#2e3192;}.cls-2{fill:#262262;}</style></defs><path class="cls-1" d="M1.47,8.63,3.7,2.85h.82L6.76,8.63H5.87L5.34,7.27H2.88L2.37,8.63ZM5.06,6.5,4.11,4l-1,2.51Z" transform="translate(-1.31 -2.78)"/><path class="cls-1" d="M10.55,4.17a2.31,2.31,0,0,0-1.39-.59c-.51,0-.93.28-.93.73s.39.66,1.17,1l.4.16.35.15a1.42,1.42,0,0,1,.36.19,1.63,1.63,0,0,1,.49.49,1.62,1.62,0,0,1,.18.77,1.48,1.48,0,0,1-.57,1.23,2.24,2.24,0,0,1-1.39.44,2.8,2.8,0,0,1-2-.81l.39-.82a2.13,2.13,0,0,0,1.58.82c.66,0,1.09-.3,1.09-.79A.65.65,0,0,0,10,6.47a1.67,1.67,0,0,0-.35-.18l-.51-.2a4.57,4.57,0,0,1-1.19-.6,1.35,1.35,0,0,1-.55-1.14,1.47,1.47,0,0,1,.52-1.12,1.92,1.92,0,0,1,1.28-.45,3,3,0,0,1,1.76.62Z" transform="translate(-1.31 -2.78)"/><path class="cls-1" d="M12,8.63V2.85h.86v3l2.52-3h1.11L14.18,5.5l2.35,3.13H15.46L13.61,6.16,12.86,7V8.63Z" transform="translate(-1.31 -2.78)"/><path class="cls-2" d="M5.73,10.72a2.54,2.54,0,0,1,.79,1.86,2.58,2.58,0,0,1-.77,1.85,2.47,2.47,0,0,1-1.84.79,2.48,2.48,0,0,1-1.82-.78,2.66,2.66,0,0,1,0-3.73,2.5,2.5,0,0,1,1.85-.78A2.47,2.47,0,0,1,5.73,10.72Zm-.82.83a1.3,1.3,0,0,0-1-.45,1.35,1.35,0,0,0-1,.45,1.46,1.46,0,0,0-.41,1,1.48,1.48,0,0,0,.41,1,1.35,1.35,0,0,0,1,.45,1.3,1.3,0,0,0,1-.45,1.45,1.45,0,0,0,.42-1A1.43,1.43,0,0,0,4.91,11.55Z" transform="translate(-1.31 -2.78)"/><path class="cls-2" d="M9.86,12.59l1.64,2.58H10.1L9,13.34,7.91,15.17H6.5l1.64-2.58L6.52,10h1.4L9,11.85,10.09,10h1.39Z" transform="translate(-1.31 -2.78)"/><path class="cls-2" d="M15.29,10h1.4l-1.85,3v2.18H13.65V13l-1.82-3h1.38l1,2Z" transform="translate(-1.31 -2.78)"/></svg>